<svg width="18" height="18" viewBox="0 0 18 18" fill="none" xmlns="http://www.w3.org/2000/svg">
<path d="M11.6484 14.2273C11.7007 14.2796 11.7421 14.3417 11.7704 14.4099C11.7987 14.4782 11.8133 14.5514 11.8133 14.6253C11.8133 14.6992 11.7987 14.7724 11.7704 14.8407C11.7421 14.909 11.7007 14.971 11.6484 15.0233C11.5961 15.0755 11.5341 15.117 11.4658 15.1453C11.3975 15.1736 11.3244 15.1881 11.2504 15.1881C11.1765 15.1881 11.1033 15.1736 11.0351 15.1453C10.9668 15.117 10.9047 15.0755 10.8525 15.0233L5.22747 9.39828C5.17517 9.34604 5.13369 9.284 5.10538 9.21572C5.07707 9.14743 5.0625 9.07423 5.0625 9.00031C5.0625 8.92639 5.07707 8.8532 5.10538 8.78491C5.13369 8.71662 5.17517 8.65458 5.22747 8.60234L10.8525 2.97734C10.958 2.8718 11.1012 2.8125 11.2504 2.8125C11.3997 2.8125 11.5429 2.8718 11.6484 2.97734C11.754 3.08289 11.8133 3.22605 11.8133 3.37531C11.8133 3.52458 11.754 3.66773 11.6484 3.77328L6.42068 9.00031L11.6484 14.2273Z" fill="#343330"/>
</svg>
