<svg width="17" height="17" viewBox="0 0 17 17" fill="none" xmlns="http://www.w3.org/2000/svg">
<path d="M8.5013 1.41797C12.4134 1.41797 15.5846 4.58918 15.5846 8.5013C15.5846 12.4134 12.4134 15.5846 8.5013 15.5846C4.58918 15.5846 1.41797 12.4134 1.41797 8.5013C1.41797 4.58918 4.58918 1.41797 8.5013 1.41797ZM8.5013 2.83464C6.99841 2.83464 5.55707 3.43166 4.49436 4.49436C3.43166 5.55707 2.83464 6.99841 2.83464 8.5013C2.83464 10.0042 3.43166 11.4455 4.49436 12.5082C5.55707 13.5709 6.99841 14.168 8.5013 14.168C10.0042 14.168 11.4455 13.5709 12.5082 12.5082C13.5709 11.4455 14.168 10.0042 14.168 8.5013C14.168 6.99841 13.5709 5.55707 12.5082 4.49436C11.4455 3.43166 10.0042 2.83464 8.5013 2.83464ZM11.3346 7.79297C11.5152 7.79317 11.6888 7.8623 11.8201 7.98624C11.9514 8.11017 12.0304 8.27956 12.041 8.45979C12.0515 8.64002 11.9929 8.81749 11.877 8.95593C11.7612 9.09438 11.5968 9.18335 11.4175 9.20468L11.3346 9.20964H5.66797C5.48743 9.20944 5.31378 9.1403 5.1825 9.01637C5.05122 8.89243 4.97222 8.72304 4.96164 8.54281C4.95106 8.36258 5.0097 8.18512 5.12557 8.04667C5.24145 7.90823 5.40582 7.81925 5.58509 7.79793L5.66797 7.79297H11.3346Z" fill="#7D7D7D"/>
</svg>
