<svg width="25" height="24" viewBox="0 0 25 24" fill="none" xmlns="http://www.w3.org/2000/svg">
<path d="M12.4453 2C17.9683 2 22.4453 6.477 22.4453 12C22.4453 17.523 17.9683 22 12.4453 22C10.6235 22.0028 8.83585 21.5054 7.27732 20.562L4.24532 21.454C4.07124 21.5052 3.88657 21.5086 3.71074 21.4638C3.5349 21.4189 3.37439 21.3276 3.24608 21.1992C3.11777 21.0709 3.0264 20.9104 2.98157 20.7346C2.93674 20.5587 2.94011 20.3741 2.99132 20.2L3.88332 17.168C2.94028 15.6093 2.4429 13.8218 2.44532 12C2.44532 6.477 6.92232 2 12.4453 2ZM12.4453 4C11.0129 3.99974 9.60678 4.38406 8.37365 5.11281C7.14053 5.84157 6.12568 6.88804 5.43508 8.14294C4.74449 9.39784 4.40349 10.8151 4.44768 12.2468C4.49187 13.6785 4.91964 15.0721 5.68632 16.282C5.91332 16.639 5.99132 17.089 5.86332 17.522L5.42232 19.023L6.92332 18.582C7.35632 18.454 7.80632 18.532 8.16332 18.759C9.21165 19.4228 10.4 19.8336 11.6345 19.959C12.8689 20.0844 14.1156 19.921 15.276 19.4816C16.4364 19.0422 17.4787 18.3389 18.3205 17.4273C19.1623 16.5157 19.7805 15.4208 20.1262 14.2291C20.4719 13.0374 20.5357 11.7817 20.3126 10.5611C20.0894 9.34053 19.5854 8.1886 18.8403 7.19638C18.0953 6.20415 17.1296 5.39883 16.0197 4.84408C14.9098 4.28933 13.6861 4.00036 12.4453 4ZM8.94532 10.5C9.34315 10.5 9.72468 10.658 10.006 10.9393C10.2873 11.2206 10.4453 11.6022 10.4453 12C10.4453 12.3978 10.2873 12.7794 10.006 13.0607C9.72468 13.342 9.34315 13.5 8.94532 13.5C8.5475 13.5 8.16597 13.342 7.88466 13.0607C7.60336 12.7794 7.44532 12.3978 7.44532 12C7.44532 11.6022 7.60336 11.2206 7.88466 10.9393C8.16597 10.658 8.5475 10.5 8.94532 10.5ZM15.9453 10.5C16.3431 10.5 16.7247 10.658 17.006 10.9393C17.2873 11.2206 17.4453 11.6022 17.4453 12C17.4453 12.3978 17.2873 12.7794 17.006 13.0607C16.7247 13.342 16.3431 13.5 15.9453 13.5C15.5475 13.5 15.166 13.342 14.8847 13.0607C14.6034 12.7794 14.4453 12.3978 14.4453 12C14.4453 11.6022 14.6034 11.2206 14.8847 10.9393C15.166 10.658 15.5475 10.5 15.9453 10.5Z" fill="black"/>
</svg>
