<svg width="18" height="18" viewBox="0 0 18 18" fill="none" xmlns="http://www.w3.org/2000/svg">
<path d="M14.4608 13.6648C14.513 13.7171 14.5545 13.7792 14.5828 13.8474C14.6111 13.9157 14.6256 13.9889 14.6256 14.0628C14.6256 14.1367 14.6111 14.2099 14.5828 14.2782C14.5545 14.3465 14.513 14.4085 14.4608 14.4608C14.4085 14.513 14.3465 14.5545 14.2782 14.5828C14.2099 14.6111 14.1367 14.6256 14.0628 14.6256C13.9889 14.6256 13.9157 14.6111 13.8474 14.5828C13.7792 14.5545 13.7171 14.513 13.6648 14.4608L9.00031 9.79555L4.33578 14.4608C4.23023 14.5663 4.08708 14.6256 3.93781 14.6256C3.78855 14.6256 3.64539 14.5663 3.53984 14.4608C3.4343 14.3552 3.375 14.2121 3.375 14.0628C3.375 13.9135 3.4343 13.7704 3.53984 13.6648L8.20508 9.00031L3.53984 4.33578C3.4343 4.23023 3.375 4.08708 3.375 3.93781C3.375 3.78855 3.4343 3.64539 3.53984 3.53984C3.64539 3.4343 3.78855 3.375 3.93781 3.375C4.08708 3.375 4.23023 3.4343 4.33578 3.53984L9.00031 8.20508L13.6648 3.53984C13.7704 3.4343 13.9135 3.375 14.0628 3.375C14.2121 3.375 14.3552 3.4343 14.4608 3.53984C14.5663 3.64539 14.6256 3.78855 14.6256 3.93781C14.6256 4.08708 14.5663 4.23023 14.4608 4.33578L9.79555 9.00031L14.4608 13.6648Z" fill="#7D7D7D"/>
</svg>
