<svg width="25" height="25" viewBox="0 0 25 25" fill="none" xmlns="http://www.w3.org/2000/svg">
<g clip-path="url(#clip0_364_3245)">
<path d="M11.4402 3.18706C11.7683 2.93186 12.1677 2.78519 12.5829 2.76745C12.9981 2.74971 13.4086 2.86177 13.7572 3.08806L13.8962 3.18806L22.2802 9.70806C23.0012 10.2691 22.6502 11.4001 21.7812 11.4931L21.6652 11.4991H20.6682V19.4991C20.6684 20.0036 20.4778 20.4896 20.1347 20.8596C19.7916 21.2296 19.3214 21.4562 18.8182 21.4941L18.6682 21.4991H6.66821C6.16381 21.499 5.67807 21.3083 5.3083 20.9652C4.93853 20.6222 4.71204 20.152 4.67421 19.6491L4.66821 19.4991V11.4991H3.67121C2.75821 11.4991 2.33921 10.3911 2.96821 9.78406L3.05621 9.70806L11.4402 3.18706ZM12.6682 4.76606L6.29321 9.72406C6.52221 9.90906 6.66821 10.1921 6.66821 10.5091V19.4991H9.66821V14.4991C9.66821 13.7034 9.98428 12.9404 10.5469 12.3777C11.1095 11.8151 11.8726 11.4991 12.6682 11.4991C13.4639 11.4991 14.2269 11.8151 14.7895 12.3777C15.3521 12.9404 15.6682 13.7034 15.6682 14.4991V19.4991H18.6682V10.5091C18.6682 10.1921 18.8142 9.90906 19.0432 9.72406L12.6682 4.76606ZM12.6682 13.4991C12.403 13.4991 12.1486 13.6044 11.9611 13.792C11.7736 13.9795 11.6682 14.2338 11.6682 14.4991V19.4991H13.6682V14.4991C13.6682 14.2338 13.5629 13.9795 13.3753 13.792C13.1878 13.6044 12.9334 13.4991 12.6682 13.4991Z" fill="black"/>
</g>
<defs>
<clipPath id="clip0_364_3245">
<rect width="24" height="24" fill="white" transform="translate(0.667969 0.5)"/>
</clipPath>
</defs>
</svg>
