<svg width="25" height="24" viewBox="0 0 25 24" fill="none" xmlns="http://www.w3.org/2000/svg">
<path fill-rule="evenodd" clip-rule="evenodd" d="M17.9986 16.106C18.2176 15.9964 18.4692 15.971 18.7057 16.0346C18.9422 16.0982 19.1471 16.2464 19.2816 16.451L19.3396 16.553L21.3396 20.553C21.411 20.6956 21.4472 20.8533 21.4452 21.0128C21.4432 21.1723 21.4032 21.329 21.3283 21.4698C21.2534 21.6106 21.1459 21.7315 21.0148 21.8224C20.8837 21.9132 20.7328 21.9714 20.5746 21.992L20.4456 22H4.44563C4.2861 22.0001 4.12888 21.9619 3.98708 21.8888C3.84529 21.8157 3.72304 21.7098 3.63054 21.5798C3.53805 21.4498 3.478 21.2996 3.4554 21.1417C3.4328 20.9837 3.44831 20.8227 3.50063 20.672L3.55063 20.552L5.55063 16.552C5.66273 16.3203 5.85986 16.1407 6.10099 16.0507C6.34212 15.9606 6.60869 15.967 6.84522 16.0686C7.08176 16.1701 7.27003 16.3589 7.37088 16.5957C7.47172 16.8325 7.47737 17.0991 7.38663 17.34L7.33963 17.447L6.06363 20H18.8276L17.5516 17.447C17.4332 17.2099 17.4138 16.9354 17.4976 16.684C17.5814 16.4325 17.7616 16.2246 17.9986 16.106ZM12.4456 2C14.3022 2 16.0826 2.7375 17.3954 4.05025C18.7081 5.36301 19.4456 7.14348 19.4456 9C19.4456 11.382 18.1566 13.317 16.8226 14.69C16.0857 15.4384 15.2757 16.1111 14.4046 16.698L14.0316 16.944L13.6996 17.153C13.6476 17.184 13.5976 17.213 13.5506 17.243L13.2936 17.391C12.7656 17.691 12.1256 17.691 11.5976 17.391L11.3406 17.242L11.0306 17.053C10.9734 17.017 10.9164 16.9807 10.8596 16.944L10.4866 16.698C9.61558 16.1111 8.80553 15.4384 8.06863 14.69C6.73463 13.317 5.44563 11.382 5.44563 9C5.44563 7.14348 6.18313 5.36301 7.49589 4.05025C8.80864 2.7375 10.5891 2 12.4456 2ZM12.4456 4C11.1196 4 9.84778 4.52678 8.9101 5.46447C7.97242 6.40215 7.44563 7.67392 7.44563 9C7.44563 10.636 8.33563 12.095 9.50264 13.296C10.2041 14.0055 10.9799 14.6375 11.8166 15.181L12.1566 15.398C12.2616 15.463 12.3586 15.521 12.4456 15.572L12.7356 15.398L13.0746 15.181C13.9113 14.6375 14.6871 14.0055 15.3886 13.296C16.5556 12.096 17.4456 10.636 17.4456 9C17.4456 7.67392 16.9189 6.40215 15.9812 5.46447C15.0435 4.52678 13.7717 4 12.4456 4ZM12.4456 6C13.2413 6 14.0043 6.31607 14.567 6.87868C15.1296 7.44129 15.4456 8.20435 15.4456 9C15.4456 9.79565 15.1296 10.5587 14.567 11.1213C14.0043 11.6839 13.2413 12 12.4456 12C11.65 12 10.8869 11.6839 10.3243 11.1213C9.7617 10.5587 9.44563 9.79565 9.44563 9C9.44563 8.20435 9.7617 7.44129 10.3243 6.87868C10.8869 6.31607 11.65 6 12.4456 6ZM12.4456 8C12.1804 8 11.9261 8.10536 11.7385 8.29289C11.551 8.48043 11.4456 8.73478 11.4456 9C11.4456 9.26522 11.551 9.51957 11.7385 9.70711C11.9261 9.89464 12.1804 10 12.4456 10C12.7109 10 12.9652 9.89464 13.1527 9.70711C13.3403 9.51957 13.4456 9.26522 13.4456 9C13.4456 8.73478 13.3403 8.48043 13.1527 8.29289C12.9652 8.10536 12.7109 8 12.4456 8Z" fill="black"/>
</svg>
