<svg width="16" height="17" viewBox="0 0 16 17" fill="none" xmlns="http://www.w3.org/2000/svg">
<path d="M8.75 8.85435C8.75 9.00556 8.70601 9.15337 8.6236 9.27909C8.54119 9.40481 8.42406 9.5028 8.28701 9.56067C8.14997 9.61853 7.99917 9.63367 7.85368 9.60417C7.7082 9.57467 7.57456 9.50186 7.46967 9.39494C7.36478 9.28802 7.29335 9.1518 7.26441 9.0035C7.23547 8.8552 7.25033 8.70148 7.30709 8.56179C7.36386 8.42209 7.45999 8.30269 7.58332 8.21869C7.70666 8.13468 7.85166 8.08984 8 8.08984C8.19891 8.08984 8.38968 8.17039 8.53033 8.31376C8.67098 8.45714 8.75 8.65159 8.75 8.85435ZM12.25 8.08984C12.1017 8.08984 11.9567 8.13468 11.8333 8.21869C11.71 8.30269 11.6139 8.42209 11.5571 8.56179C11.5003 8.70148 11.4855 8.8552 11.5144 9.0035C11.5434 9.1518 11.6148 9.28802 11.7197 9.39494C11.8246 9.50186 11.9582 9.57467 12.1037 9.60417C12.2492 9.63367 12.4 9.61853 12.537 9.56067C12.6741 9.5028 12.7912 9.40481 12.8736 9.27909C12.956 9.15337 13 9.00556 13 8.85435C13 8.65159 12.921 8.45714 12.7803 8.31376C12.6397 8.17039 12.4489 8.08984 12.25 8.08984ZM3.75 8.08984C3.60166 8.08984 3.45666 8.13468 3.33332 8.21869C3.20999 8.30269 3.11386 8.42209 3.05709 8.56179C3.00032 8.70148 2.98547 8.8552 3.01441 9.0035C3.04335 9.1518 3.11478 9.28802 3.21967 9.39494C3.32456 9.50186 3.4582 9.57467 3.60368 9.60417C3.74917 9.63367 3.89997 9.61853 4.03701 9.56067C4.17406 9.5028 4.29119 9.40481 4.3736 9.27909C4.45601 9.15337 4.5 9.00556 4.5 8.85435C4.5 8.65159 4.42098 8.45714 4.28033 8.31376C4.13968 8.17039 3.94891 8.08984 3.75 8.08984Z" fill="black"/>
</svg>
