<svg width="25" height="24" viewBox="0 0 25 24" fill="none" xmlns="http://www.w3.org/2000/svg">
<g clip-path="url(#clip0_364_3328)">
<path fill-rule="evenodd" clip-rule="evenodd" d="M16.668 14C17.9564 14.0001 19.1951 14.4975 20.1257 15.3887C21.0564 16.2798 21.6071 17.4958 21.663 18.783L21.668 19V20C21.6681 20.5046 21.4776 20.9906 21.1345 21.3605C20.7914 21.7305 20.3211 21.9572 19.818 21.995L19.668 22H5.66797C5.16339 22.0002 4.6774 21.8096 4.30742 21.4665C3.93744 21.1234 3.71081 20.6532 3.67297 20.15L3.66797 20V19C3.66804 17.7115 4.16551 16.4728 5.05663 15.5422C5.94775 14.6116 7.16372 14.0609 8.45097 14.005L8.66797 14H16.668ZM16.668 16H8.66797C7.90276 16 7.16645 16.2923 6.60971 16.8173C6.05296 17.3422 5.71786 18.0601 5.67297 18.824L5.66797 19V20H19.668V19C19.668 18.2348 19.3756 17.4985 18.8507 16.9417C18.3257 16.385 17.6079 16.0499 16.844 16.005L16.668 16ZM12.668 2C13.9941 2 15.2658 2.52678 16.2035 3.46447C17.1412 4.40215 17.668 5.67392 17.668 7C17.668 8.32608 17.1412 9.59785 16.2035 10.5355C15.2658 11.4732 13.9941 12 12.668 12C11.3419 12 10.0701 11.4732 9.13243 10.5355C8.19475 9.59785 7.66797 8.32608 7.66797 7C7.66797 5.67392 8.19475 4.40215 9.13243 3.46447C10.0701 2.52678 11.3419 2 12.668 2ZM12.668 4C12.274 4 11.8839 4.0776 11.5199 4.22836C11.1559 4.37913 10.8252 4.6001 10.5466 4.87868C10.2681 5.15726 10.0471 5.48797 9.89633 5.85195C9.74557 6.21593 9.66797 6.60603 9.66797 7C9.66797 7.39397 9.74557 7.78407 9.89633 8.14805C10.0471 8.51203 10.2681 8.84274 10.5466 9.12132C10.8252 9.3999 11.1559 9.62087 11.5199 9.77164C11.8839 9.9224 12.274 10 12.668 10C13.4636 10 14.2267 9.68393 14.7893 9.12132C15.3519 8.55871 15.668 7.79565 15.668 7C15.668 6.20435 15.3519 5.44129 14.7893 4.87868C14.2267 4.31607 13.4636 4 12.668 4Z" fill="black"/>
</g>
<defs>
<clipPath id="clip0_364_3328">
<rect width="24" height="24" fill="white" transform="translate(0.667969)"/>
</clipPath>
</defs>
</svg>
