<svg width="30" height="25" viewBox="0 0 30 25" fill="none" xmlns="http://www.w3.org/2000/svg">
<path d="M21.9487 22.6866C22.0326 22.9382 22.0131 23.2129 21.8945 23.4501C21.7759 23.6873 21.5679 23.8677 21.3162 23.9516C21.0646 24.0355 20.79 24.016 20.5528 23.8974C20.3155 23.7787 20.1351 23.5707 20.0513 23.3191L19.0513 20.3191C19.0097 20.1945 18.9931 20.063 19.0024 19.932C19.0118 19.801 19.0468 19.6731 19.1055 19.5556C19.1642 19.4382 19.2455 19.3334 19.3448 19.2474C19.444 19.1613 19.5592 19.0956 19.6838 19.0541C19.8083 19.0126 19.9399 18.996 20.0709 19.0053C20.2019 19.0146 20.3298 19.0496 20.4472 19.1084C20.5647 19.1671 20.6695 19.2484 20.7555 19.3476C20.8416 19.4468 20.9072 19.562 20.9487 19.6866L21.9487 22.6866ZM15 19.0029C14.7348 19.0029 14.4804 19.1082 14.2929 19.2958C14.1054 19.4833 14 19.7376 14 20.0029V24.0029C14 24.2681 14.1054 24.5224 14.2929 24.71C14.4804 24.8975 14.7348 25.0029 15 25.0029C15.2652 25.0029 15.5196 24.8975 15.7071 24.71C15.8946 24.5224 16 24.2681 16 24.0029V20.0029C16 19.7376 15.8946 19.4833 15.7071 19.2958C15.5196 19.1082 15.2652 19.0029 15 19.0029ZM10.3162 19.0541C10.1917 19.0126 10.0601 18.996 9.9291 19.0053C9.7981 19.0146 9.67021 19.0496 9.55274 19.1083C9.43527 19.1671 9.33052 19.2484 9.24448 19.3476C9.15843 19.4468 9.09277 19.562 9.05125 19.6866L8.05125 22.6866C7.96738 22.9382 7.98689 23.2129 8.10551 23.4501C8.22413 23.6873 8.43213 23.8677 8.68375 23.9516C8.93537 24.0355 9.21001 24.016 9.44724 23.8974C9.68448 23.7787 9.86487 23.5707 9.94875 23.3191L10.9487 20.3191C10.9903 20.1945 11.0069 20.063 10.9976 19.932C10.9883 19.801 10.9532 19.6731 10.8945 19.5556C10.8358 19.4381 10.7545 19.3334 10.6553 19.2473C10.556 19.1613 10.4408 19.0956 10.3162 19.0541ZM30 10.0029C30 12.0304 28.3288 13.8641 25.2938 15.1641C22.5275 16.3504 18.875 17.0029 15 17.0029C11.125 17.0029 7.4725 16.3504 4.70625 15.1641C1.67125 13.8641 0 12.0304 0 10.0029C0 8.95661 0.45875 7.40411 2.64625 5.94036C4.0675 4.98911 6.01375 4.22037 8.29375 3.70912C8.92956 2.70175 9.78349 1.85003 10.7925 1.21684C11.8015 0.583653 12.9399 0.185161 14.1235 0.0507794C15.3071 -0.0836017 16.5058 0.0495598 17.6311 0.440435C18.7564 0.831309 19.7795 1.46992 20.625 2.30911C21.0563 2.73584 21.4382 3.20965 21.7638 3.72161C26.9287 4.88911 30 7.22036 30 10.0029ZM9 8.10662V8.48162C8.99873 8.70625 9.07388 8.92463 9.21313 9.1009C9.35238 9.27717 9.54743 9.40085 9.76625 9.45161C11.4847 9.8305 13.2403 10.0154 15 10.0029C16.7587 10.017 18.5134 9.83379 20.2313 9.45661C20.4504 9.40613 20.6459 9.28261 20.7856 9.10634C20.9253 8.93007 21.0009 8.71153 21 8.48662V8.00286C21.0001 7.20816 20.8423 6.42135 20.5357 5.68813C20.2292 4.95492 19.7801 4.2899 19.2145 3.73169C18.6488 3.17348 17.9779 2.7332 17.2407 2.43642C16.5035 2.13964 15.7146 1.99227 14.92 2.00286C11.6562 2.04536 9 4.78411 9 8.10662ZM28 10.0029C28 8.54037 25.9213 7.01662 22.7625 6.05412C22.9205 6.69164 23.0003 7.34605 23 8.00286V8.49286C23.001 9.16951 22.7719 9.82639 22.3503 10.3556C21.9288 10.8849 21.3397 11.2551 20.68 11.4054C18.815 11.8165 16.9097 12.017 15 12.0029C13.0903 12.0169 11.185 11.8164 9.32 11.4054C8.66026 11.2551 8.07124 10.8849 7.64965 10.3556C7.22807 9.82639 6.99898 9.16951 7 8.49286V8.11036C7.00021 7.41349 7.08969 6.7195 7.26625 6.04536C4.09 7.00286 2 8.53411 2 10.0029C2 12.3679 7.33875 15.0029 15 15.0029C22.6613 15.0029 28 12.3679 28 10.0029Z" fill="#FF6666"/>
</svg>
