<svg width="17" height="18" viewBox="0 0 17 18" fill="none" xmlns="http://www.w3.org/2000/svg">
<path d="M8.5 1.625C7.13408 1.625 5.79882 2.03788 4.6631 2.81143C3.52737 3.58498 2.64218 4.68445 2.11946 5.97082C1.59674 7.25718 1.45998 8.67266 1.72645 10.0383C1.99293 11.4039 2.65069 12.6582 3.61655 13.6428C4.5824 14.6273 5.81298 15.2978 7.15266 15.5694C8.49234 15.8411 9.88096 15.7017 11.1429 15.1688C12.4049 14.636 13.4835 13.7337 14.2423 12.576C15.0012 11.4183 15.4063 10.0572 15.4063 8.66485C15.4043 6.79837 14.6761 5.0089 13.3813 3.6891C12.0866 2.3693 10.3311 1.62697 8.5 1.625ZM8.5 14.6217C7.34422 14.6217 6.21439 14.2723 5.25339 13.6178C4.29239 12.9632 3.54338 12.0329 3.10108 10.9444C2.65878 9.85596 2.54306 8.65825 2.76854 7.50274C2.99402 6.34723 3.55058 5.28583 4.36785 4.45276C5.18511 3.61969 6.22637 3.05236 7.35994 2.82251C8.49352 2.59267 9.6685 2.71063 10.7363 3.16149C11.8041 3.61234 12.7168 4.37584 13.3589 5.35543C14.001 6.33502 14.3438 7.48671 14.3438 8.66485C14.342 10.2441 13.7258 11.7582 12.6302 12.875C11.5347 13.9917 10.0493 14.6199 8.5 14.6217ZM11.6875 8.66485C11.6875 8.80848 11.6315 8.94621 11.5319 9.04777C11.4323 9.14933 11.2971 9.20638 11.1563 9.20638H9.03125V11.3725C9.03125 11.5161 8.97528 11.6539 8.87565 11.7554C8.77603 11.857 8.6409 11.914 8.5 11.914C8.35911 11.914 8.22398 11.857 8.12435 11.7554C8.02472 11.6539 7.96875 11.5161 7.96875 11.3725V9.20638H5.84375C5.70286 9.20638 5.56773 9.14933 5.4681 9.04777C5.36847 8.94621 5.3125 8.80848 5.3125 8.66485C5.3125 8.52123 5.36847 8.38349 5.4681 8.28194C5.56773 8.18038 5.70286 8.12333 5.84375 8.12333H7.96875V5.95722C7.96875 5.8136 8.02472 5.67586 8.12435 5.5743C8.22398 5.47274 8.35911 5.41569 8.5 5.41569C8.6409 5.41569 8.77603 5.47274 8.87565 5.5743C8.97528 5.67586 9.03125 5.8136 9.03125 5.95722V8.12333H11.1563C11.2971 8.12333 11.4323 8.18038 11.5319 8.28194C11.6315 8.38349 11.6875 8.52123 11.6875 8.66485Z" fill="#7D7D7D"/>
</svg>
