<svg width="19" height="20" viewBox="0 0 19 20" fill="none" xmlns="http://www.w3.org/2000/svg">
<path d="M9.5 2.47852C7.97338 2.47852 6.48104 2.93121 5.2117 3.77936C3.94235 4.62751 2.95302 5.83301 2.36881 7.24343C1.78459 8.65384 1.63174 10.2058 1.92957 11.7031C2.2274 13.2004 2.96254 14.5758 4.04202 15.6552C5.12151 16.7347 6.49686 17.4699 7.99415 17.7677C9.49144 18.0655 11.0434 17.9127 12.4538 17.3285C13.8643 16.7442 15.0698 15.7549 15.9179 14.4856C16.7661 13.2162 17.2188 11.7239 17.2188 10.1973C17.2166 8.15079 16.4027 6.18875 14.9556 4.74167C13.5085 3.29459 11.5465 2.48068 9.5 2.47852ZM9.5 16.7285C8.20824 16.7285 6.94549 16.3455 5.87144 15.6278C4.79738 14.9101 3.96025 13.8901 3.46592 12.6967C2.97158 11.5032 2.84224 10.19 3.09425 8.92308C3.34626 7.65614 3.9683 6.49239 4.88171 5.57897C5.79512 4.66556 6.95888 4.04352 8.22582 3.79151C9.49276 3.5395 10.806 3.66884 11.9994 4.16318C13.1928 4.65751 14.2129 5.49464 14.9305 6.5687C15.6482 7.64276 16.0313 8.90551 16.0313 10.1973C16.0293 11.9289 15.3405 13.589 14.1161 14.8134C12.8917 16.0378 11.2316 16.7266 9.5 16.7285ZM13.0625 10.1973C13.0625 10.3547 12.9999 10.5058 12.8886 10.6171C12.7772 10.7285 12.6262 10.791 12.4688 10.791H10.0938V13.166C10.0938 13.3235 10.0312 13.4745 9.91985 13.5859C9.8085 13.6972 9.65748 13.7598 9.5 13.7598C9.34253 13.7598 9.19151 13.6972 9.08016 13.5859C8.96881 13.4745 8.90625 13.3235 8.90625 13.166V10.791H6.53125C6.37378 10.791 6.22276 10.7285 6.11141 10.6171C6.00006 10.5058 5.9375 10.3547 5.9375 10.1973C5.9375 10.0398 6.00006 9.88877 6.11141 9.77742C6.22276 9.66607 6.37378 9.60352 6.53125 9.60352H8.90625V7.22852C8.90625 7.07104 8.96881 6.92002 9.08016 6.80867C9.19151 6.69732 9.34253 6.63477 9.5 6.63477C9.65748 6.63477 9.8085 6.69732 9.91985 6.80867C10.0312 6.92002 10.0938 7.07104 10.0938 7.22852V9.60352H12.4688C12.6262 9.60352 12.7772 9.66607 12.8886 9.77742C12.9999 9.88877 13.0625 10.0398 13.0625 10.1973Z" fill="#7D7D7D"/>
</svg>
