<svg width="25" height="24" viewBox="0 0 25 24" fill="none" xmlns="http://www.w3.org/2000/svg">
<path fill-rule="evenodd" clip-rule="evenodd" d="M22.668 19C22.668 20.6569 21.3248 22 19.668 22H5.66797C4.01111 22 2.66797 20.6569 2.66797 19V5C2.66797 3.34315 4.01111 2 5.66797 2H19.668C21.3248 2 22.668 3.34315 22.668 5V19ZM11.668 6H17.668C18.2203 6 18.668 6.44772 18.668 7C18.668 7.55228 18.2203 8 17.668 8H11.668C11.1157 8 10.668 7.55228 10.668 7C10.668 6.44772 11.1157 6 11.668 6ZM8.66797 7C8.66639 6.86932 8.63921 6.74022 8.58797 6.62C8.53733 6.49882 8.4663 6.3872 8.37797 6.29C8.28077 6.20167 8.16915 6.13064 8.04797 6.08C7.67557 5.9234 7.24553 6.00626 6.95797 6.29C6.86964 6.3872 6.79861 6.49882 6.74797 6.62C6.69673 6.74022 6.66955 6.86932 6.66797 7C6.66643 7.2658 6.77078 7.52128 6.95797 7.71C7.1496 7.89273 7.4032 7.99632 7.66797 8C7.79915 8.00338 7.92929 7.97598 8.04797 7.92C8.16915 7.86936 8.28077 7.79833 8.37797 7.71C8.5607 7.51837 8.66429 7.26477 8.66797 7ZM8.04797 11.08C7.67557 10.9234 7.24553 11.0063 6.95797 11.29C6.86537 11.3839 6.79378 11.4964 6.74797 11.62C6.69673 11.7402 6.66955 11.8693 6.66797 12C6.66643 12.2658 6.77078 12.5213 6.95797 12.71C7.1496 12.8927 7.4032 12.9963 7.66797 13C7.79865 12.9984 7.92775 12.9712 8.04797 12.92C8.16915 12.8694 8.28077 12.7983 8.37797 12.71L8.49797 12.56C8.53582 12.5043 8.56608 12.4437 8.58797 12.38C8.62376 12.3245 8.65075 12.2638 8.66797 12.2C8.67288 12.1334 8.67288 12.0666 8.66797 12C8.66429 11.7352 8.5607 11.4816 8.37797 11.29C8.28077 11.2017 8.16915 11.1306 8.04797 11.08ZM11.668 11H17.668C18.2203 11 18.668 11.4477 18.668 12C18.668 12.5523 18.2203 13 17.668 13H11.668C11.1157 13 10.668 12.5523 10.668 12C10.668 11.4477 11.1157 11 11.668 11ZM8.37797 16.29C8.28077 16.2017 8.16915 16.1306 8.04797 16.08C7.67557 15.9234 7.24553 16.0063 6.95797 16.29C6.86693 16.3851 6.79556 16.4972 6.74797 16.62C6.64099 16.862 6.64099 17.138 6.74797 17.38C6.79556 17.5028 6.86693 17.6149 6.95797 17.71C7.1496 17.8927 7.4032 17.9963 7.66797 18C7.79865 17.9984 7.92775 17.9712 8.04797 17.92C8.16915 17.8694 8.28077 17.7983 8.37797 17.71C8.46901 17.6149 8.54037 17.5028 8.58797 17.38C8.69495 17.138 8.69495 16.862 8.58797 16.62C8.54037 16.4972 8.46901 16.3851 8.37797 16.29ZM11.668 16H17.668C18.2203 16 18.668 16.4477 18.668 17C18.668 17.5523 18.2203 18 17.668 18H11.668C11.1157 18 10.668 17.5523 10.668 17C10.668 16.4477 11.1157 16 11.668 16ZM19.668 4C20.2203 4 20.668 4.44772 20.668 5V19C20.668 19.5523 20.2203 20 19.668 20H5.66797C5.11568 20 4.66797 19.5523 4.66797 19V5C4.66797 4.44772 5.11568 4 5.66797 4H19.668Z" fill="black"/>
</svg>
