<svg width="18" height="18" viewBox="0 0 18 18" fill="none" xmlns="http://www.w3.org/2000/svg">
<path fill-rule="evenodd" clip-rule="evenodd" d="M9 1.5C4.85786 1.5 1.5 4.85786 1.5 9C1.5 13.1421 4.85786 16.5 9 16.5C13.1421 16.5 16.5 13.1421 16.5 9C16.5 7.01088 15.7098 5.10322 14.3033 3.6967C12.8968 2.29018 10.9891 1.5 9 1.5ZM9 15C5.68629 15 3 12.3137 3 9C3 5.68629 5.68629 3 9 3C12.3137 3 15 5.68629 15 9C15 10.5913 14.3679 12.1174 13.2426 13.2426C12.1174 14.3679 10.5913 15 9 15ZM11.25 10.5C11.5861 10.5175 11.8928 10.309 12 9.99C12.0627 9.79607 12.0437 9.58498 11.9475 9.4053C11.8513 9.22563 11.6862 9.09284 11.49 9.0375L9.75 8.46V5.25C9.75 4.83579 9.41421 4.5 9 4.5C8.58579 4.5 8.25 4.83579 8.25 5.25V9C8.24917 9.32244 8.45452 9.60932 8.76 9.7125L11.01 10.4625C11.088 10.4854 11.1687 10.498 11.25 10.5Z" fill="#FF6666"/>
</svg>
