<svg width="18" height="18" viewBox="0 0 18 18" fill="none" xmlns="http://www.w3.org/2000/svg">
<path d="M15.9834 2.01675C15.8419 1.87537 15.6653 1.77427 15.4718 1.72384C15.2782 1.67342 15.0748 1.6755 14.8823 1.72987H14.8717L1.37596 5.82487C1.15686 5.88802 0.962123 6.01625 0.81755 6.19257C0.672976 6.36889 0.585394 6.58498 0.566408 6.8122C0.547422 7.03942 0.597928 7.26705 0.711235 7.46492C0.824542 7.66279 0.9953 7.82156 1.20088 7.92019L7.17182 10.8283L10.0757 16.7957C10.166 16.9885 10.3096 17.1513 10.4896 17.2651C10.6695 17.3789 10.8782 17.4387 11.091 17.4377C11.1234 17.4377 11.1557 17.4363 11.1881 17.4335C11.4151 17.4151 11.6311 17.3277 11.807 17.183C11.983 17.0384 12.1105 16.8434 12.1724 16.6242L16.2646 3.12839C16.2646 3.12487 16.2646 3.12136 16.2646 3.11784C16.3197 2.92586 16.3227 2.72268 16.2733 2.52917C16.2238 2.33566 16.1238 2.1588 15.9834 2.01675ZM11.0974 16.3021L11.0938 16.312V16.3071L8.27713 10.5203L11.6521 7.14534C11.7532 7.039 11.8087 6.89739 11.8068 6.75071C11.8049 6.60403 11.7458 6.46389 11.6421 6.36016C11.5384 6.25644 11.3982 6.19733 11.2515 6.19546C11.1049 6.19358 10.9632 6.24907 10.8569 6.35011L7.4819 9.72511L1.69307 6.90839H1.68815H1.69799L15.1874 2.81269L11.0974 16.3021Z" fill="#343330"/>
</svg>
