<svg width="16" height="16" viewBox="0 0 16 16" fill="none" xmlns="http://www.w3.org/2000/svg">
<g clip-path="url(#clip0_518_1486)">
<path d="M9.52 1.33398C9.79984 1.33406 10.0726 1.42217 10.2995 1.58586C10.5265 1.74954 10.6962 1.98048 10.7847 2.24598L11.1467 3.33398H13.3333C13.5101 3.33398 13.6797 3.40422 13.8047 3.52925C13.9298 3.65427 14 3.82384 14 4.00065C14 4.17746 13.9298 4.34703 13.8047 4.47206C13.6797 4.59708 13.5101 4.66732 13.3333 4.66732L13.3313 4.71465L12.7533 12.81C12.7173 13.3144 12.4915 13.7864 12.1214 14.131C11.7513 14.4756 11.2644 14.6673 10.7587 14.6673H5.24133C4.73564 14.6673 4.24874 14.4756 3.87864 14.131C3.50855 13.7864 3.28274 13.3144 3.24667 12.81L2.66867 4.71398C2.66746 4.69846 2.66679 4.68289 2.66667 4.66732C2.48986 4.66732 2.32029 4.59708 2.19526 4.47206C2.07024 4.34703 2 4.17746 2 4.00065C2 3.82384 2.07024 3.65427 2.19526 3.52925C2.32029 3.40422 2.48986 3.33398 2.66667 3.33398H4.85333L5.21533 2.24598C5.3038 1.98038 5.47362 1.74935 5.70073 1.58566C5.92784 1.42197 6.20071 1.33392 6.48067 1.33398H9.52ZM11.998 4.66732H4.002L4.57667 12.7147C4.58863 12.8828 4.66385 13.0401 4.78717 13.1551C4.9105 13.27 5.07277 13.3339 5.24133 13.334H10.7587C10.9272 13.3339 11.0895 13.27 11.2128 13.1551C11.3362 13.0401 11.4114 12.8828 11.4233 12.7147L11.998 4.66732ZM6.66667 6.66732C6.82996 6.66734 6.98756 6.72729 7.10958 6.83579C7.23161 6.9443 7.30956 7.09382 7.32867 7.25598L7.33333 7.33398V10.6673C7.33315 10.8372 7.26808 11.0007 7.15143 11.1242C7.03479 11.2478 6.87536 11.3221 6.70574 11.3321C6.53611 11.3421 6.36908 11.2869 6.23878 11.1778C6.10848 11.0687 6.02474 10.914 6.00467 10.7453L6 10.6673V7.33398C6 7.15717 6.07024 6.9876 6.19526 6.86258C6.32029 6.73756 6.48986 6.66732 6.66667 6.66732ZM9.33333 6.66732C9.51014 6.66732 9.67971 6.73756 9.80474 6.86258C9.92976 6.9876 10 7.15717 10 7.33398V10.6673C10 10.8441 9.92976 11.0137 9.80474 11.1387C9.67971 11.2637 9.51014 11.334 9.33333 11.334C9.15652 11.334 8.98695 11.2637 8.86193 11.1387C8.73691 11.0137 8.66667 10.8441 8.66667 10.6673V7.33398C8.66667 7.15717 8.73691 6.9876 8.86193 6.86258C8.98695 6.73756 9.15652 6.66732 9.33333 6.66732ZM9.52 2.66732H6.48L6.258 3.33398H9.742L9.52 2.66732Z" fill="#7D7D7D"/>
</g>
<defs>
<clipPath id="clip0_518_1486">
<rect width="16" height="16" fill="white"/>
</clipPath>
</defs>
</svg>
